<?xml version="1.0" standalone="no"?>
<!DOCTYPE svg PUBLIC "-//W3C//DTD SVG 20010904//EN"
 "http://www.w3.org/TR/2001/REC-SVG-20010904/DTD/svg10.dtd">
<svg version="1.0" xmlns="http://www.w3.org/2000/svg"
 width="200.000000pt" height="200.000000pt" viewBox="0 0 200.000000 200.000000"
 preserveAspectRatio="xMidYMid meet">
<metadata>
Created by potrace 1.11, written by Peter Selinger 2001-2013
</metadata>
<g transform="translate(0.000000,200.000000) scale(0.100000,-0.100000)"
fill="#000000" stroke="none">
<path d="M906 1875 c-36 -13 -100 -44 -141 -69 -75 -47 -195 -166 -191 -190 1
-7 23 -37 49 -66 26 -29 57 -65 67 -80 20 -28 20 -28 -1 -55 -12 -14 -24 -46
-26 -69 -4 -36 -1 -47 18 -65 12 -11 35 -21 50 -21 21 0 28 -6 31 -25 4 -20 1
-25 -14 -25 -45 0 -169 35 -235 66 -39 19 -77 34 -83 34 -6 0 -24 7 -39 15
-31 16 -51 59 -51 111 0 19 -2 34 -5 34 -17 0 -59 -38 -80 -73 -20 -35 -31
-43 -77 -54 -51 -13 -128 -59 -136 -81 -2 -6 24 3 57 19 33 16 66 26 76 23 11
-5 -2 -13 -40 -26 -100 -34 -116 -52 -99 -116 6 -22 10 -23 53 -15 25 4 82 8
126 8 65 0 80 -3 80 -15 0 -8 6 -16 13 -16 6 -1 17 -2 22 -3 6 0 10 -10 10
-22 0 -42 218 -113 364 -118 28 -1 28 -2 22 -43 -13 -83 -89 -192 -172 -247
l-47 -31 34 -14 c19 -8 61 -14 97 -13 l63 2 -29 -25 c-16 -14 -43 -33 -61 -42
-32 -18 -46 -41 -54 -98 -10 -63 -86 -120 -160 -120 -39 0 -48 5 -86 45 -59
63 -76 57 -59 -20 17 -77 98 -162 171 -181 28 -6 34 -18 16 -30 -7 -4 1 -18
21 -39 27 -28 36 -31 72 -28 24 3 67 20 105 44 36 21 67 39 69 39 3 0 31 19
62 42 69 50 173 157 210 216 29 46 34 47 106 17 29 -12 36 -19 27 -28 -17 -17
-14 -23 18 -37 l29 -12 -23 -56 c-17 -42 -23 -76 -22 -129 0 -40 4 -77 7 -84
7 -10 192 -15 351 -10 28 1 93 56 84 71 -3 5 -44 7 -90 6 -77 -4 -102 3 -75
19 5 3 16 20 24 38 48 105 40 245 -20 339 -31 49 -32 54 -16 66 58 43 58 42
16 66 -74 40 -98 146 -59 254 l18 50 86 22 c85 23 281 113 281 130 0 5 9 12
21 15 17 6 20 13 15 36 -4 23 -2 27 11 22 11 -4 14 -2 11 8 -3 8 -11 13 -19
12 -21 -3 -90 119 -77 135 16 19 43 -10 81 -87 20 -42 33 -59 35 -47 3 13 10
16 26 12 12 -3 39 -1 60 5 34 9 41 8 61 -11 27 -26 32 -20 29 40 -3 74 -2 73
-29 68 -20 -4 -23 -2 -14 8 6 7 16 11 22 8 8 -3 13 10 15 37 2 31 -1 40 -10
36 -9 -3 -14 5 -15 25 -1 29 -33 77 -33 50 0 -7 -7 -12 -15 -12 -8 0 -15 -4
-15 -10 0 -5 4 -10 10 -10 5 0 1 -15 -10 -32 -28 -46 -25 -56 8 -28 l27 24
-26 -28 c-36 -38 -57 -26 -30 17 22 36 18 82 -7 92 -9 3 -18 1 -20 -4 -8 -23
-30 -8 -102 70 -41 44 -97 104 -123 132 -69 73 -83 95 -69 109 9 9 18 8 37 -2
31 -17 60 -4 60 26 0 17 -9 19 -80 20 -44 1 -86 -3 -92 -9 -31 -24 -9 -111 39
-153 12 -11 61 -63 108 -114 47 -51 93 -101 104 -111 18 -17 18 -20 3 -52 -20
-40 -37 -56 -68 -62 -12 -3 -25 -8 -28 -13 -15 -20 -178 -112 -201 -112 -4 0
-6 18 -3 40 6 42 -9 54 -35 28 -16 -16 -20 -10 -25 42 -3 25 -6 45 -7 45 -1 0
-3 7 -5 15 -11 57 -77 150 -105 150 -7 0 3 17 23 37 37 36 49 73 24 73 -7 0
-26 -16 -41 -35 -16 -19 -34 -35 -41 -35 -15 0 -88 93 -148 190 -29 48 -53 76
-65 77 -10 1 -49 -9 -86 -22z"/>
</g>
</svg>
